<svg width="100%" viewBox="0 0 680 480" xmlns="http://www.w3.org/2000/svg">
<defs>
  <radialGradient id="bg1" cx="15%" cy="50%" r="55%">
    <stop offset="0%" stop-color="#6b1a0e" stop-opacity="0.55"/>
    <stop offset="100%" stop-color="#0d0504" stop-opacity="0"/>
  </radialGradient>
  <radialGradient id="bg2" cx="85%" cy="50%" r="45%">
    <stop offset="0%" stop-color="#5a1208" stop-opacity="0.35"/>
    <stop offset="100%" stop-color="#0d0504" stop-opacity="0"/>
  </radialGradient>
  <radialGradient id="logoGlow" cx="50%" cy="50%" r="50%">
    <stop offset="0%" stop-color="#c0340a" stop-opacity="0.14"/>
    <stop offset="100%" stop-color="#0d0504" stop-opacity="0"/>
  </radialGradient>
  <linearGradient id="fadeH" x1="0%" y1="0%" x2="100%" y2="0%">
    <stop offset="0%" stop-color="#0d0504" stop-opacity="0.92"/>
    <stop offset="18%" stop-color="#0d0504" stop-opacity="0"/>
    <stop offset="82%" stop-color="#0d0504" stop-opacity="0"/>
    <stop offset="100%" stop-color="#0d0504" stop-opacity="0.92"/>
  </linearGradient>
  <linearGradient id="fadeV" x1="0%" y1="0%" x2="0%" y2="100%">
    <stop offset="0%" stop-color="#0d0504" stop-opacity="0.88"/>
    <stop offset="14%" stop-color="#0d0504" stop-opacity="0"/>
    <stop offset="78%" stop-color="#0d0504" stop-opacity="0"/>
    <stop offset="100%" stop-color="#0d0504" stop-opacity="1"/>
  </linearGradient>
  <filter id="logoShadow" x="-20%" y="-20%" width="140%" height="140%">
    <feDropShadow dx="0" dy="4" stdDeviation="8" flood-color="#000000" flood-opacity="0.7"/>
    <feDropShadow dx="0" dy="0" stdDeviation="14" flood-color="#6b0a02" flood-opacity="0.5"/>
  </filter>
</defs>

<rect width="680" height="420" fill="#0d0504" style="fill:rgb(13, 5, 4);stroke:none;color:rgb(255, 255, 255);stroke-width:1px;stroke-linecap:butt;stroke-linejoin:miter;opacity:1;font-family:&quot;Anthropic Sans&quot;, -apple-system, BlinkMacSystemFont, &quot;Segoe UI&quot;, sans-serif;font-size:16px;font-weight:400;text-anchor:start;dominant-baseline:auto"/>
<rect width="680" height="420" fill="url(#bg1)" style="stroke:none;color:rgb(255, 255, 255);stroke-width:1px;stroke-linecap:butt;stroke-linejoin:miter;opacity:1;font-family:&quot;Anthropic Sans&quot;, -apple-system, BlinkMacSystemFont, &quot;Segoe UI&quot;, sans-serif;font-size:16px;font-weight:400;text-anchor:start;dominant-baseline:auto"/>
<rect width="680" height="420" fill="url(#bg2)" style="stroke:none;color:rgb(255, 255, 255);stroke-width:1px;stroke-linecap:butt;stroke-linejoin:miter;opacity:1;font-family:&quot;Anthropic Sans&quot;, -apple-system, BlinkMacSystemFont, &quot;Segoe UI&quot;, sans-serif;font-size:16px;font-weight:400;text-anchor:start;dominant-baseline:auto"/>

<path d="M -40 -30 Q 180 210 -40 450" stroke="#c0340a" stroke-opacity="0.12" stroke-width="0.9" fill="none" style="fill:none;stroke:rgb(192, 52, 10);color:rgb(255, 255, 255);stroke-width:0.9px;stroke-linecap:butt;stroke-linejoin:miter;opacity:1;font-family:&quot;Anthropic Sans&quot;, -apple-system, BlinkMacSystemFont, &quot;Segoe UI&quot;, sans-serif;font-size:16px;font-weight:400;text-anchor:start;dominant-baseline:auto"/>
<path d="M 20  -50 Q 260 210 20  470" stroke="#8b1e08" stroke-opacity="0.09" stroke-width="0.6" fill="none" style="fill:none;stroke:rgb(139, 30, 8);color:rgb(255, 255, 255);stroke-width:0.6px;stroke-linecap:butt;stroke-linejoin:miter;opacity:1;font-family:&quot;Anthropic Sans&quot;, -apple-system, BlinkMacSystemFont, &quot;Segoe UI&quot;, sans-serif;font-size:16px;font-weight:400;text-anchor:start;dominant-baseline:auto"/>
<path d="M -80  10 Q 130 210 -80 410" stroke="#e04020" stroke-opacity="0.07" stroke-width="0.7" fill="none" style="fill:none;stroke:rgb(224, 64, 32);color:rgb(255, 255, 255);stroke-width:0.7px;stroke-linecap:butt;stroke-linejoin:miter;opacity:1;font-family:&quot;Anthropic Sans&quot;, -apple-system, BlinkMacSystemFont, &quot;Segoe UI&quot;, sans-serif;font-size:16px;font-weight:400;text-anchor:start;dominant-baseline:auto"/>
<path d="M 80  -20 Q 290 210 80  440" stroke="#6b1a0e" stroke-opacity="0.13" stroke-width="0.8" fill="none" style="fill:none;stroke:rgb(107, 26, 14);color:rgb(255, 255, 255);stroke-width:0.8px;stroke-linecap:butt;stroke-linejoin:miter;opacity:1;font-family:&quot;Anthropic Sans&quot;, -apple-system, BlinkMacSystemFont, &quot;Segoe UI&quot;, sans-serif;font-size:16px;font-weight:400;text-anchor:start;dominant-baseline:auto"/>
<path d="M 140 -40 Q 330 210 140 460" stroke="#c0340a" stroke-opacity="0.06" stroke-width="0.5" fill="none" style="fill:none;stroke:rgb(192, 52, 10);color:rgb(255, 255, 255);stroke-width:0.5px;stroke-linecap:butt;stroke-linejoin:miter;opacity:1;font-family:&quot;Anthropic Sans&quot;, -apple-system, BlinkMacSystemFont, &quot;Segoe UI&quot;, sans-serif;font-size:16px;font-weight:400;text-anchor:start;dominant-baseline:auto"/>
<path d="M 720 -30 Q 500 210 720 450" stroke="#c0340a" stroke-opacity="0.12" stroke-width="0.9" fill="none" style="fill:none;stroke:rgb(192, 52, 10);color:rgb(255, 255, 255);stroke-width:0.9px;stroke-linecap:butt;stroke-linejoin:miter;opacity:1;font-family:&quot;Anthropic Sans&quot;, -apple-system, BlinkMacSystemFont, &quot;Segoe UI&quot;, sans-serif;font-size:16px;font-weight:400;text-anchor:start;dominant-baseline:auto"/>
<path d="M 660 -50 Q 420 210 660 470" stroke="#8b1e08" stroke-opacity="0.09" stroke-width="0.6" fill="none" style="fill:none;stroke:rgb(139, 30, 8);color:rgb(255, 255, 255);stroke-width:0.6px;stroke-linecap:butt;stroke-linejoin:miter;opacity:1;font-family:&quot;Anthropic Sans&quot;, -apple-system, BlinkMacSystemFont, &quot;Segoe UI&quot;, sans-serif;font-size:16px;font-weight:400;text-anchor:start;dominant-baseline:auto"/>
<path d="M 760  10 Q 550 210 760 410" stroke="#e04020" stroke-opacity="0.07" stroke-width="0.7" fill="none" style="fill:none;stroke:rgb(224, 64, 32);color:rgb(255, 255, 255);stroke-width:0.7px;stroke-linecap:butt;stroke-linejoin:miter;opacity:1;font-family:&quot;Anthropic Sans&quot;, -apple-system, BlinkMacSystemFont, &quot;Segoe UI&quot;, sans-serif;font-size:16px;font-weight:400;text-anchor:start;dominant-baseline:auto"/>
<path d="M 600 -20 Q 390 210 600 440" stroke="#6b1a0e" stroke-opacity="0.13" stroke-width="0.8" fill="none" style="fill:none;stroke:rgb(107, 26, 14);color:rgb(255, 255, 255);stroke-width:0.8px;stroke-linecap:butt;stroke-linejoin:miter;opacity:1;font-family:&quot;Anthropic Sans&quot;, -apple-system, BlinkMacSystemFont, &quot;Segoe UI&quot;, sans-serif;font-size:16px;font-weight:400;text-anchor:start;dominant-baseline:auto"/>
<path d="M 540 -40 Q 350 210 540 460" stroke="#c0340a" stroke-opacity="0.06" stroke-width="0.5" fill="none" style="fill:none;stroke:rgb(192, 52, 10);color:rgb(255, 255, 255);stroke-width:0.5px;stroke-linecap:butt;stroke-linejoin:miter;opacity:1;font-family:&quot;Anthropic Sans&quot;, -apple-system, BlinkMacSystemFont, &quot;Segoe UI&quot;, sans-serif;font-size:16px;font-weight:400;text-anchor:start;dominant-baseline:auto"/>

<rect x="32" y="28" width="616" height="364" stroke="#c0340a" stroke-opacity="0.18" stroke-width="0.8" fill="none" style="fill:none;stroke:rgb(192, 52, 10);color:rgb(255, 255, 255);stroke-width:0.8px;stroke-linecap:butt;stroke-linejoin:miter;opacity:1;font-family:&quot;Anthropic Sans&quot;, -apple-system, BlinkMacSystemFont, &quot;Segoe UI&quot;, sans-serif;font-size:16px;font-weight:400;text-anchor:start;dominant-baseline:auto"/>
<rect x="44" y="40" width="592" height="340" stroke="#8b1e08" stroke-opacity="0.10" stroke-width="0.5" fill="none" style="fill:none;stroke:rgb(139, 30, 8);color:rgb(255, 255, 255);stroke-width:0.5px;stroke-linecap:butt;stroke-linejoin:miter;opacity:1;font-family:&quot;Anthropic Sans&quot;, -apple-system, BlinkMacSystemFont, &quot;Segoe UI&quot;, sans-serif;font-size:16px;font-weight:400;text-anchor:start;dominant-baseline:auto"/>

<path d="M 32 60 L 32 28 L 64 28" stroke="#e04020" stroke-opacity="0.32" stroke-width="1.1" fill="none" style="fill:none;stroke:rgb(224, 64, 32);color:rgb(255, 255, 255);stroke-width:1.1px;stroke-linecap:butt;stroke-linejoin:miter;opacity:1;font-family:&quot;Anthropic Sans&quot;, -apple-system, BlinkMacSystemFont, &quot;Segoe UI&quot;, sans-serif;font-size:16px;font-weight:400;text-anchor:start;dominant-baseline:auto"/>
<path d="M 44 72 L 44 40 L 76 40" stroke="#c0340a" stroke-opacity="0.16" stroke-width="0.7" fill="none" style="fill:none;stroke:rgb(192, 52, 10);color:rgb(255, 255, 255);stroke-width:0.7px;stroke-linecap:butt;stroke-linejoin:miter;opacity:1;font-family:&quot;Anthropic Sans&quot;, -apple-system, BlinkMacSystemFont, &quot;Segoe UI&quot;, sans-serif;font-size:16px;font-weight:400;text-anchor:start;dominant-baseline:auto"/>
<line x1="32" y1="28" x2="52" y2="48" stroke="#c0340a" stroke-opacity="0.13" stroke-width="0.6" style="fill:rgb(0, 0, 0);stroke:rgb(192, 52, 10);color:rgb(255, 255, 255);stroke-width:0.6px;stroke-linecap:butt;stroke-linejoin:miter;opacity:1;font-family:&quot;Anthropic Sans&quot;, -apple-system, BlinkMacSystemFont, &quot;Segoe UI&quot;, sans-serif;font-size:16px;font-weight:400;text-anchor:start;dominant-baseline:auto"/>
<path d="M 648 60 L 648 28 L 616 28" stroke="#e04020" stroke-opacity="0.32" stroke-width="1.1" fill="none" style="fill:none;stroke:rgb(224, 64, 32);color:rgb(255, 255, 255);stroke-width:1.1px;stroke-linecap:butt;stroke-linejoin:miter;opacity:1;font-family:&quot;Anthropic Sans&quot;, -apple-system, BlinkMacSystemFont, &quot;Segoe UI&quot;, sans-serif;font-size:16px;font-weight:400;text-anchor:start;dominant-baseline:auto"/>
<path d="M 636 72 L 636 40 L 604 40" stroke="#c0340a" stroke-opacity="0.16" stroke-width="0.7" fill="none" style="fill:none;stroke:rgb(192, 52, 10);color:rgb(255, 255, 255);stroke-width:0.7px;stroke-linecap:butt;stroke-linejoin:miter;opacity:1;font-family:&quot;Anthropic Sans&quot;, -apple-system, BlinkMacSystemFont, &quot;Segoe UI&quot;, sans-serif;font-size:16px;font-weight:400;text-anchor:start;dominant-baseline:auto"/>
<line x1="648" y1="28" x2="628" y2="48" stroke="#c0340a" stroke-opacity="0.13" stroke-width="0.6" style="fill:rgb(0, 0, 0);stroke:rgb(192, 52, 10);color:rgb(255, 255, 255);stroke-width:0.6px;stroke-linecap:butt;stroke-linejoin:miter;opacity:1;font-family:&quot;Anthropic Sans&quot;, -apple-system, BlinkMacSystemFont, &quot;Segoe UI&quot;, sans-serif;font-size:16px;font-weight:400;text-anchor:start;dominant-baseline:auto"/>
<path d="M 32 360 L 32 392 L 64 392" stroke="#e04020" stroke-opacity="0.32" stroke-width="1.1" fill="none" style="fill:none;stroke:rgb(224, 64, 32);color:rgb(255, 255, 255);stroke-width:1.1px;stroke-linecap:butt;stroke-linejoin:miter;opacity:1;font-family:&quot;Anthropic Sans&quot;, -apple-system, BlinkMacSystemFont, &quot;Segoe UI&quot;, sans-serif;font-size:16px;font-weight:400;text-anchor:start;dominant-baseline:auto"/>
<path d="M 44 348 L 44 380 L 76 380" stroke="#c0340a" stroke-opacity="0.16" stroke-width="0.7" fill="none" style="fill:none;stroke:rgb(192, 52, 10);color:rgb(255, 255, 255);stroke-width:0.7px;stroke-linecap:butt;stroke-linejoin:miter;opacity:1;font-family:&quot;Anthropic Sans&quot;, -apple-system, BlinkMacSystemFont, &quot;Segoe UI&quot;, sans-serif;font-size:16px;font-weight:400;text-anchor:start;dominant-baseline:auto"/>
<line x1="32" y1="392" x2="52" y2="372" stroke="#c0340a" stroke-opacity="0.13" stroke-width="0.6" style="fill:rgb(0, 0, 0);stroke:rgb(192, 52, 10);color:rgb(255, 255, 255);stroke-width:0.6px;stroke-linecap:butt;stroke-linejoin:miter;opacity:1;font-family:&quot;Anthropic Sans&quot;, -apple-system, BlinkMacSystemFont, &quot;Segoe UI&quot;, sans-serif;font-size:16px;font-weight:400;text-anchor:start;dominant-baseline:auto"/>
<path d="M 648 360 L 648 392 L 616 392" stroke="#e04020" stroke-opacity="0.32" stroke-width="1.1" fill="none" style="fill:none;stroke:rgb(224, 64, 32);color:rgb(255, 255, 255);stroke-width:1.1px;stroke-linecap:butt;stroke-linejoin:miter;opacity:1;font-family:&quot;Anthropic Sans&quot;, -apple-system, BlinkMacSystemFont, &quot;Segoe UI&quot;, sans-serif;font-size:16px;font-weight:400;text-anchor:start;dominant-baseline:auto"/>
<path d="M 636 348 L 636 380 L 604 380" stroke="#c0340a" stroke-opacity="0.16" stroke-width="0.7" fill="none" style="fill:none;stroke:rgb(192, 52, 10);color:rgb(255, 255, 255);stroke-width:0.7px;stroke-linecap:butt;stroke-linejoin:miter;opacity:1;font-family:&quot;Anthropic Sans&quot;, -apple-system, BlinkMacSystemFont, &quot;Segoe UI&quot;, sans-serif;font-size:16px;font-weight:400;text-anchor:start;dominant-baseline:auto"/>
<line x1="648" y1="392" x2="628" y2="372" stroke="#c0340a" stroke-opacity="0.13" stroke-width="0.6" style="fill:rgb(0, 0, 0);stroke:rgb(192, 52, 10);color:rgb(255, 255, 255);stroke-width:0.6px;stroke-linecap:butt;stroke-linejoin:miter;opacity:1;font-family:&quot;Anthropic Sans&quot;, -apple-system, BlinkMacSystemFont, &quot;Segoe UI&quot;, sans-serif;font-size:16px;font-weight:400;text-anchor:start;dominant-baseline:auto"/>

<polygon points="340,38 350,52 340,66 330,52" stroke="#e04020" stroke-opacity="0.38" stroke-width="0.9" fill="#c0340a" fill-opacity="0.06" style="fill:rgb(192, 52, 10);stroke:rgb(224, 64, 32);color:rgb(255, 255, 255);stroke-width:0.9px;stroke-linecap:butt;stroke-linejoin:miter;opacity:1;font-family:&quot;Anthropic Sans&quot;, -apple-system, BlinkMacSystemFont, &quot;Segoe UI&quot;, sans-serif;font-size:16px;font-weight:400;text-anchor:start;dominant-baseline:auto"/>
<circle cx="340" cy="52" r="2.2" fill="#e04020" fill-opacity="0.32" style="fill:rgb(224, 64, 32);stroke:none;color:rgb(255, 255, 255);stroke-width:1px;stroke-linecap:butt;stroke-linejoin:miter;opacity:1;font-family:&quot;Anthropic Sans&quot;, -apple-system, BlinkMacSystemFont, &quot;Segoe UI&quot;, sans-serif;font-size:16px;font-weight:400;text-anchor:start;dominant-baseline:auto"/>
<polygon points="340,354 350,368 340,382 330,368" stroke="#e04020" stroke-opacity="0.38" stroke-width="0.9" fill="#c0340a" fill-opacity="0.06" style="fill:rgb(192, 52, 10);stroke:rgb(224, 64, 32);color:rgb(255, 255, 255);stroke-width:0.9px;stroke-linecap:butt;stroke-linejoin:miter;opacity:1;font-family:&quot;Anthropic Sans&quot;, -apple-system, BlinkMacSystemFont, &quot;Segoe UI&quot;, sans-serif;font-size:16px;font-weight:400;text-anchor:start;dominant-baseline:auto"/>
<circle cx="340" cy="368" r="2.2" fill="#e04020" fill-opacity="0.32" style="fill:rgb(224, 64, 32);stroke:none;color:rgb(255, 255, 255);stroke-width:1px;stroke-linecap:butt;stroke-linejoin:miter;opacity:1;font-family:&quot;Anthropic Sans&quot;, -apple-system, BlinkMacSystemFont, &quot;Segoe UI&quot;, sans-serif;font-size:16px;font-weight:400;text-anchor:start;dominant-baseline:auto"/>
<polygon points="32,196 44,210 32,224 20,210" stroke="#c0340a" stroke-opacity="0.30" stroke-width="0.8" fill="#c0340a" fill-opacity="0.05" style="fill:rgb(192, 52, 10);stroke:rgb(192, 52, 10);color:rgb(255, 255, 255);stroke-width:0.8px;stroke-linecap:butt;stroke-linejoin:miter;opacity:1;font-family:&quot;Anthropic Sans&quot;, -apple-system, BlinkMacSystemFont, &quot;Segoe UI&quot;, sans-serif;font-size:16px;font-weight:400;text-anchor:start;dominant-baseline:auto"/>
<polygon points="648,196 660,210 648,224 636,210" stroke="#c0340a" stroke-opacity="0.30" stroke-width="0.8" fill="#c0340a" fill-opacity="0.05" style="fill:rgb(192, 52, 10);stroke:rgb(192, 52, 10);color:rgb(255, 255, 255);stroke-width:0.8px;stroke-linecap:butt;stroke-linejoin:miter;opacity:1;font-family:&quot;Anthropic Sans&quot;, -apple-system, BlinkMacSystemFont, &quot;Segoe UI&quot;, sans-serif;font-size:16px;font-weight:400;text-anchor:start;dominant-baseline:auto"/>

<line x1="80" y1="28" x2="180" y2="28" stroke="#8b1e08" stroke-opacity="0.18" stroke-width="0.7" style="fill:rgb(0, 0, 0);stroke:rgb(139, 30, 8);color:rgb(255, 255, 255);stroke-width:0.7px;stroke-linecap:butt;stroke-linejoin:miter;opacity:1;font-family:&quot;Anthropic Sans&quot;, -apple-system, BlinkMacSystemFont, &quot;Segoe UI&quot;, sans-serif;font-size:16px;font-weight:400;text-anchor:start;dominant-baseline:auto"/>
<line x1="500" y1="28" x2="600" y2="28" stroke="#8b1e08" stroke-opacity="0.18" stroke-width="0.7" style="fill:rgb(0, 0, 0);stroke:rgb(139, 30, 8);color:rgb(255, 255, 255);stroke-width:0.7px;stroke-linecap:butt;stroke-linejoin:miter;opacity:1;font-family:&quot;Anthropic Sans&quot;, -apple-system, BlinkMacSystemFont, &quot;Segoe UI&quot;, sans-serif;font-size:16px;font-weight:400;text-anchor:start;dominant-baseline:auto"/>
<line x1="80" y1="392" x2="180" y2="392" stroke="#8b1e08" stroke-opacity="0.18" stroke-width="0.7" style="fill:rgb(0, 0, 0);stroke:rgb(139, 30, 8);color:rgb(255, 255, 255);stroke-width:0.7px;stroke-linecap:butt;stroke-linejoin:miter;opacity:1;font-family:&quot;Anthropic Sans&quot;, -apple-system, BlinkMacSystemFont, &quot;Segoe UI&quot;, sans-serif;font-size:16px;font-weight:400;text-anchor:start;dominant-baseline:auto"/>
<line x1="500" y1="392" x2="600" y2="392" stroke="#8b1e08" stroke-opacity="0.18" stroke-width="0.7" style="fill:rgb(0, 0, 0);stroke:rgb(139, 30, 8);color:rgb(255, 255, 255);stroke-width:0.7px;stroke-linecap:butt;stroke-linejoin:miter;opacity:1;font-family:&quot;Anthropic Sans&quot;, -apple-system, BlinkMacSystemFont, &quot;Segoe UI&quot;, sans-serif;font-size:16px;font-weight:400;text-anchor:start;dominant-baseline:auto"/>

<line x1="340" y1="210" x2="32" y2="28" stroke="#c0340a" stroke-opacity="0.05" stroke-width="0.5" style="fill:rgb(0, 0, 0);stroke:rgb(192, 52, 10);color:rgb(255, 255, 255);stroke-width:0.5px;stroke-linecap:butt;stroke-linejoin:miter;opacity:1;font-family:&quot;Anthropic Sans&quot;, -apple-system, BlinkMacSystemFont, &quot;Segoe UI&quot;, sans-serif;font-size:16px;font-weight:400;text-anchor:start;dominant-baseline:auto"/>
<line x1="340" y1="210" x2="648" y2="28" stroke="#c0340a" stroke-opacity="0.05" stroke-width="0.5" style="fill:rgb(0, 0, 0);stroke:rgb(192, 52, 10);color:rgb(255, 255, 255);stroke-width:0.5px;stroke-linecap:butt;stroke-linejoin:miter;opacity:1;font-family:&quot;Anthropic Sans&quot;, -apple-system, BlinkMacSystemFont, &quot;Segoe UI&quot;, sans-serif;font-size:16px;font-weight:400;text-anchor:start;dominant-baseline:auto"/>
<line x1="340" y1="210" x2="32" y2="392" stroke="#c0340a" stroke-opacity="0.05" stroke-width="0.5" style="fill:rgb(0, 0, 0);stroke:rgb(192, 52, 10);color:rgb(255, 255, 255);stroke-width:0.5px;stroke-linecap:butt;stroke-linejoin:miter;opacity:1;font-family:&quot;Anthropic Sans&quot;, -apple-system, BlinkMacSystemFont, &quot;Segoe UI&quot;, sans-serif;font-size:16px;font-weight:400;text-anchor:start;dominant-baseline:auto"/>
<line x1="340" y1="210" x2="648" y2="392" stroke="#c0340a" stroke-opacity="0.05" stroke-width="0.5" style="fill:rgb(0, 0, 0);stroke:rgb(192, 52, 10);color:rgb(255, 255, 255);stroke-width:0.5px;stroke-linecap:butt;stroke-linejoin:miter;opacity:1;font-family:&quot;Anthropic Sans&quot;, -apple-system, BlinkMacSystemFont, &quot;Segoe UI&quot;, sans-serif;font-size:16px;font-weight:400;text-anchor:start;dominant-baseline:auto"/>

<circle cx="110" cy="80" r="1.5" fill="#e04020" fill-opacity="0.22" style="fill:rgb(224, 64, 32);stroke:none;color:rgb(255, 255, 255);stroke-width:1px;stroke-linecap:butt;stroke-linejoin:miter;opacity:1;font-family:&quot;Anthropic Sans&quot;, -apple-system, BlinkMacSystemFont, &quot;Segoe UI&quot;, sans-serif;font-size:16px;font-weight:400;text-anchor:start;dominant-baseline:auto"/>
<circle cx="68" cy="130" r="1.1" fill="#c0340a" fill-opacity="0.18" style="fill:rgb(192, 52, 10);stroke:none;color:rgb(255, 255, 255);stroke-width:1px;stroke-linecap:butt;stroke-linejoin:miter;opacity:1;font-family:&quot;Anthropic Sans&quot;, -apple-system, BlinkMacSystemFont, &quot;Segoe UI&quot;, sans-serif;font-size:16px;font-weight:400;text-anchor:start;dominant-baseline:auto"/>
<circle cx="82" cy="210" r="1.0" fill="#6b1a0e" fill-opacity="0.24" style="fill:rgb(107, 26, 14);stroke:none;color:rgb(255, 255, 255);stroke-width:1px;stroke-linecap:butt;stroke-linejoin:miter;opacity:1;font-family:&quot;Anthropic Sans&quot;, -apple-system, BlinkMacSystemFont, &quot;Segoe UI&quot;, sans-serif;font-size:16px;font-weight:400;text-anchor:start;dominant-baseline:auto"/>
<circle cx="120" cy="310" r="1.4" fill="#e04020" fill-opacity="0.17" style="fill:rgb(224, 64, 32);stroke:none;color:rgb(255, 255, 255);stroke-width:1px;stroke-linecap:butt;stroke-linejoin:miter;opacity:1;font-family:&quot;Anthropic Sans&quot;, -apple-system, BlinkMacSystemFont, &quot;Segoe UI&quot;, sans-serif;font-size:16px;font-weight:400;text-anchor:start;dominant-baseline:auto"/>
<circle cx="570" cy="80" r="1.5" fill="#e04020" fill-opacity="0.22" style="fill:rgb(224, 64, 32);stroke:none;color:rgb(255, 255, 255);stroke-width:1px;stroke-linecap:butt;stroke-linejoin:miter;opacity:1;font-family:&quot;Anthropic Sans&quot;, -apple-system, BlinkMacSystemFont, &quot;Segoe UI&quot;, sans-serif;font-size:16px;font-weight:400;text-anchor:start;dominant-baseline:auto"/>
<circle cx="612" cy="130" r="1.1" fill="#c0340a" fill-opacity="0.18" style="fill:rgb(192, 52, 10);stroke:none;color:rgb(255, 255, 255);stroke-width:1px;stroke-linecap:butt;stroke-linejoin:miter;opacity:1;font-family:&quot;Anthropic Sans&quot;, -apple-system, BlinkMacSystemFont, &quot;Segoe UI&quot;, sans-serif;font-size:16px;font-weight:400;text-anchor:start;dominant-baseline:auto"/>
<circle cx="598" cy="210" r="1.0" fill="#6b1a0e" fill-opacity="0.24" style="fill:rgb(107, 26, 14);stroke:none;color:rgb(255, 255, 255);stroke-width:1px;stroke-linecap:butt;stroke-linejoin:miter;opacity:1;font-family:&quot;Anthropic Sans&quot;, -apple-system, BlinkMacSystemFont, &quot;Segoe UI&quot;, sans-serif;font-size:16px;font-weight:400;text-anchor:start;dominant-baseline:auto"/>
<circle cx="560" cy="310" r="1.4" fill="#e04020" fill-opacity="0.17" style="fill:rgb(224, 64, 32);stroke:none;color:rgb(255, 255, 255);stroke-width:1px;stroke-linecap:butt;stroke-linejoin:miter;opacity:1;font-family:&quot;Anthropic Sans&quot;, -apple-system, BlinkMacSystemFont, &quot;Segoe UI&quot;, sans-serif;font-size:16px;font-weight:400;text-anchor:start;dominant-baseline:auto"/>

<ellipse cx="340" cy="212" rx="105" ry="105" fill="url(#logoGlow)" style="stroke:none;color:rgb(255, 255, 255);stroke-width:1px;stroke-linecap:butt;stroke-linejoin:miter;opacity:1;font-family:&quot;Anthropic Sans&quot;, -apple-system, BlinkMacSystemFont, &quot;Segoe UI&quot;, sans-serif;font-size:16px;font-weight:400;text-anchor:start;dominant-baseline:auto"/>

<!-- Logo: прозрачный, с тенью -->
<g transform="translate(270, 140) scale(5.83)" opacity="0.28" filter="url(#logoShadow)" style="fill:rgb(0, 0, 0);stroke:none;color:rgb(255, 255, 255);stroke-width:1px;stroke-linecap:butt;stroke-linejoin:miter;opacity:0.28;font-family:&quot;Anthropic Sans&quot;, -apple-system, BlinkMacSystemFont, &quot;Segoe UI&quot;, sans-serif;font-size:16px;font-weight:400;text-anchor:start;dominant-baseline:auto">
  <path fill-rule="evenodd" d="M9.817 23.607 9.471 23.313l-.468-.04c-.584-.048-.856-.101-1.186-.232l-.258-.103-.278.11c-.236.095-.814.181-1.253.188-.024 0-.064-.056-.089-.125-.028-.07-.077-.137-.115-.15-.035-.012-.297.046-.587.133l-.525.158-.189-.091c-.238-.116-.338-.114-.736.007-.303.094-.341.096-.584.044-.363-.076-.666-.071-1.349.026-.744.106-.76.106-.979-.044C1.728 23.094 1.648 23.069 1.469 23.069c-.203 0-.225-.009-.248-.104a.607.607 0 0 1 .043-.381c.112-.278.156-.952.168-2.563l.012-1.505.211.015.208.015.032-.87c.016-.478.032-1.169.035-1.534l.005-.66-.112-.08c-.305-.223-.291-.191-.418-.918-.066-.377-.131-.93-.146-1.23-.025-.532-.023-.547.075-.658l.1-.114.248.213c.138.117.255.194.266.17.036-.113-.077-1.461-.135-1.631-.038-.1-.066-.237-.066-.308 0-.068-.068-.252-.153-.412l-.151-.289.051-.513c.067-.68-.019-1.18-.304-1.782L.065 7.763l.079-.673.084-.674-.088-.349L.049 5.717l.105-.391.101-.393L.14 4.553.021 4.174l.143-.4C.305 3.385.308 3.364.305 2.73.303 2.016.228 1.551.08 1.365-.047 1.203-.026 1.092.163.919.253.834.328.726.328.681c0-.069.031-.082.221-.086.12 0 .49-.032.823-.07l.607-.073.794.117c.792.115.793.115 1.879.069l1.088-.047.257.155.26.153 1.055-.015 1.056-.015.356-.129c.194-.071.505-.195.69-.279.182-.084.513-.197.73-.257l.398-.105.514.162.514.164.444-.149.442-.149.477.158c.263.086.751.298 1.089.472l.611.312.64-.018c.485-.015.651-.033.677-.078.02-.031.081-.215.133-.407l.095-.351.605.02c.453.016.859.064 1.601.194l.995.176.259-.104c.14-.057.408-.126.595-.15.313-.042.367-.037.794.071.398.1.535.115 1.082.115.345 0 .703-.015.798-.031.163-.028.19-.017.521.222.193.138.364.273.379.302.017.027.053.173.077.324l.046.278-.209.396c-.117.218-.214.415-.214.438 0 .023.048.061.104.088.057.025.153.123.215.217l.111.17-.025 2.285c-.015 1.257-.04 2.378-.054 2.489l-.027.204-.345-.022-.344-.027-.029.191c-.016.103-.029.292-.029.424 0 .192-.03.293-.16.546l-.163.311.09.129c.05.072.221.265.38.43l.292.305-.089.323-.09.325.107.688c.124.827.115 1.035-.088 1.751-.081.287-.146.553-.146.593 0 .075.055.094.427.145.165.021.2.041.2.116 0 .049.026 1.104.06 2.345.107 4.075.117 4.964.067 5.888-.027.482-.058.882-.067.891-.01.009-.341-.124-.738-.295l-.723-.308-.312.135c-.322.139-.354.175-.396.442-.029.177-.007.169-.8.331l-.467.096-.454-.152c-.42-.141-.477-.151-.808-.129-.247.015-.417.003-.562-.04-.208-.059-.208-.059-.557.102l-.352.159H16.435c-1.369-.002-1.651.02-2.594.195-.652.12-.881.115-2.022-.022l-.602-.074-.421.096c-.234.054-.47.096-.526.094-.068 0-.224-.101-.451-.294ZM7.284 19.918c1.005-.379 1.834-.695 1.839-.702.013-.014-3.917-3.826-4.439-4.307-.145-.134-.275-.237-.285-.227-.009.011-.329.865-.709 1.895-.42 1.138-.679 1.899-.658 1.931.025.042 2.392 2.091 2.419 2.097.003 0 .828-.309 1.833-.687Zm13.512-2.089c.523-1.265.936-2.31.922-2.325-.019-.021-9.83-6.646-16.698-11.278l-.551-.371-.9.407c-.497.222-.896.425-.889.447.01.028 3.331 3.51 7.384 7.74l7.368 7.692 1.206-.008 1.209-.008.949-2.296Zm-1.362-10.857c.173-.962.316-1.781.316-1.821 0-.043-.253-.249-.676-.546-.372-.262-.701-.49-.73-.509-.053-.033-3.902 1.008-3.897 1.053.004.03 4.644 3.599 4.66 3.582.008-.006.154-.799.327-1.759Z" fill="#e04020" style="fill:rgb(224, 64, 32);stroke:none;color:rgb(255, 255, 255);stroke-width:1px;stroke-linecap:butt;stroke-linejoin:miter;opacity:1;font-family:&quot;Anthropic Sans&quot;, -apple-system, BlinkMacSystemFont, &quot;Segoe UI&quot;, sans-serif;font-size:16px;font-weight:400;text-anchor:start;dominant-baseline:auto"/>
</g>

<rect width="680" height="420" fill="url(#fadeH)" style="stroke:none;color:rgb(255, 255, 255);stroke-width:1px;stroke-linecap:butt;stroke-linejoin:miter;opacity:1;font-family:&quot;Anthropic Sans&quot;, -apple-system, BlinkMacSystemFont, &quot;Segoe UI&quot;, sans-serif;font-size:16px;font-weight:400;text-anchor:start;dominant-baseline:auto"/>
<rect width="680" height="420" fill="url(#fadeV)" style="stroke:none;color:rgb(255, 255, 255);stroke-width:1px;stroke-linecap:butt;stroke-linejoin:miter;opacity:1;font-family:&quot;Anthropic Sans&quot;, -apple-system, BlinkMacSystemFont, &quot;Segoe UI&quot;, sans-serif;font-size:16px;font-weight:400;text-anchor:start;dominant-baseline:auto"/>
</svg>